Coordinates
version=1
nRows=11
nColumns=36
inDegrees=yes

Units are S.I. units (second, meters, Newtons, ...)
If the header above contains a line with 'inDegrees', this indicates whether rotational values are in degrees (yes) or radians (no).

endheader
time	pelvis_tilt	pelvis_list	pelvis_rotation	pelvis_tx	pelvis_ty	pelvis_tz	hip_flexion_r	hip_adduction_r	hip_rotation_r	knee_angle_r	knee_angle_r_beta	ankle_angle_r	subtalar_angle_r	mtp_angle_r	hip_flexion_l	hip_adduction_l	hip_rotation_l	knee_angle_l	knee_angle_l_beta	ankle_angle_l	subtalar_angle_l	mtp_angle_l	lumbar_extension	lumbar_bending	lumbar_rotation	arm_flex_r	arm_add_r	arm_rot_r	elbow_flex_r	pro_sup_r	arm_flex_l	arm_add_l	arm_rot_l	elbow_flex_l	pro_sup_l
      0.00000000	      0.08594062	     -1.24512856	     14.21688191	     -0.45887896	      0.92822693	      0.26011967	      8.32205044	      8.72054734	      3.01813706	     14.66252962	      0.25590942	      5.26710897	    -12.73543031	     -5.72052263	     24.65419797	     -8.41581219	     -1.53941508	     47.99566510	      0.83768238	     -0.68391284	    -18.19156718	     -5.72052263	     -6.60553801	      2.29608250	     -0.56564807	      4.66190803	     -9.91957492	      2.43081197	     35.58461604	     83.54299370	      8.10593003	     -9.37590024	     14.61557249	     24.82415300	     70.77241327
      0.01694910	     -1.23078073	     -2.34819678	     11.89119624	     -0.44454757	      0.92369117	      0.25523398	      9.23385049	      9.59410208	      5.14690330	     14.80517452	      0.25839904	      6.35157441	    -13.96596166	     -5.92727498	     28.03392072	     -9.90393936	     -3.48125772	     46.69147308	      0.81491994	      0.71254840	    -15.52528014	     -5.92727498	     -3.88053753	      3.68926062	      0.78321874	      3.83902095	    -10.15309677	     -0.79708049	     37.51875485	     83.24980230	      6.61547224	     -7.71850664	      9.02245171	     24.85390403	     70.28194410
      0.03389830	     -2.07851450	     -3.07508606	     10.09665820	     -0.43079946	      0.92016984	      0.25137671	      8.44869225	     10.06930969	      5.05074213	     13.34624217	      0.23293587	      6.68621078	    -12.41316630	     -5.97652070	     29.86444369	    -11.45355176	     -4.44098274	     43.61645919	      0.76125082	      2.77082420	    -13.97162431	     -5.97652070	     -2.09338122	      4.32231588	      1.56118249	      3.53946753	    -10.09266087	     -1.42155913	     38.05924379	     83.15649668	      5.70130522	     -7.32679862	      7.77353826	     24.90246693	     70.10493448
      0.05084750	     -2.43703943	     -3.49284312	      8.87054383	     -0.41923222	      0.91986499	      0.24822720	      7.71875682	     10.37217420	      5.72614780	     12.83872355	      0.22407800	      8.24482889	    -10.40963614	     -6.02903692	     31.30344611	    -12.49732423	     -3.89754215	     40.20436971	      0.70169863	      5.60104620	    -12.82751834	     -6.02903692	     -1.88546275	      4.71676547	      2.27252561	      3.35538494	    -10.17245713	     -1.84473949	     38.77273049	     82.81928237	      5.36089218	     -7.17164638	      6.00836365	     25.19629305	     69.73651700
      0.06779660	     -2.32751584	     -3.99128354	      7.68621305	     -0.40827350	      0.92264049	      0.24503003	      6.65255170	     10.81250892	      6.63261579	     12.12254115	      0.21157826	      9.12128694	     -8.34965314	     -6.19255923	     32.03343047	    -13.69885474	     -2.77444895	     35.36934192	      0.61731147	      6.95705289	    -11.69799426	     -6.19255923	     -2.31362816	      5.41576715	      2.53870098	      3.83569809	    -10.37496266	     -0.59786672	     39.10876944	     81.41593173	      4.86235124	     -6.57039314	      2.81473087	     25.54026983	     69.28800360
      0.08474580	     -2.25335500	     -4.69123355	      6.86577322	     -0.39717921	      0.92543152	      0.24115784	      5.69432205	     11.32444314	      7.85182280	     11.18701402	      0.19525023	      8.89561479	     -7.54872382	     -6.15811033	     32.60670514	    -14.95437919	     -1.23284606	     29.90506012	      0.52194176	      7.19587826	    -10.69058994	     -6.15811033	     -2.46881781	      6.31268279	      2.94897712	      4.13781031	    -10.52196634	     -0.36633084	     38.92721816	     81.73097861	      4.99166778	     -6.17295643	      2.79529845	     24.96350858	     69.44749658
      0.10169490	     -1.05130086	     -4.90649004	      6.01492323	     -0.38585997	      0.92891135	      0.23726255	      3.49557160	     11.26779324	      8.63736406	     10.30925623	      0.17993046	      9.60267249	     -5.16326745	     -6.15099705	     31.15344090	    -16.06726079	     -0.81508887	     23.71777164	      0.41395321	      6.87143748	     -8.20027704	     -6.15099705	     -4.29456950	      6.58409579	      3.89843019	      4.33508380	    -10.82406740	      0.75101344	     39.31238314	     81.55197685	      5.53319741	     -5.79163552	      2.37870157	     24.87666691	     69.41513161
      0.11864410	     -0.13336972	     -5.25558051	      5.47086663	     -0.37409265	      0.92896897	      0.23219801	      1.56833616	     11.26826316	      9.00414705	      9.49023336	      0.16563582	     10.30190906	     -3.55225358	     -6.55645494	     30.19032561	    -16.99159740	     -0.06266013	     18.41821441	      0.32145848	      6.23208170	     -5.69099332	     -6.55645494	     -5.45369334	      6.96122196	      3.96662298	      4.91698309	    -11.22337287	      3.47879415	     39.07481478	     74.65728575	      5.54623794	     -5.39625219	      1.40256915	     24.82253524	     68.20450703
      0.13559320	      0.59500163	     -5.35846705	      4.96947038	     -0.36169000	      0.92748914	      0.22619133	     -0.23336985	     11.02548130	      9.43526905	      9.07060063	      0.15831185	     11.48850322	     -2.80662071	     -6.53984172	     29.37687677	    -17.60516216	      0.26670566	     14.18438337	      0.24756419	      5.50617053	     -3.58723107	     -6.53984172	     -6.26944702	      7.00128845	      4.38982795	      4.97356922	    -11.21344232	      3.61142397	     38.69732729	     74.91529545	      5.85447044	     -5.12489369	      1.41179672	     24.30607127	     68.31838582
      0.15254240	      1.27937223	     -5.07234208	      4.62402393	     -0.34844227	      0.92510428	      0.21936526	     -2.12934935	     10.38042661	      9.40222860	      8.90556296	      0.15543140	     13.40640405	     -1.92416425	     -6.53103074	     28.54271191	    -17.77762591	      0.07267342	     11.08064332	      0.19339371	      4.87910309	     -2.04762832	     -6.53103074	     -6.92629861	      6.56248658	      4.58330084	      4.90260489	    -11.09771079	      3.59864204	     38.33143573	     75.04360910	      6.00612976	     -5.01477101	      1.42616913	     23.87924898	     68.34557294
      0.16949150	      1.79947315	     -4.52840502	      4.48795047	     -0.33517516	      0.92224417	      0.21244233	     -3.81983871	      9.42877375	      8.52336832	      9.09626166	      0.15875972	     16.03595578	     -0.51675158	     -6.65613501	     27.87257002	    -17.54285460	     -0.33878192	      8.95199605	      0.15624181	      4.47739610	     -1.18827688	     -6.65613501	     -7.28713080	      5.84267186	      4.57595470	      4.64465987	    -10.86328832	      3.45370004	     37.90203553	     73.74876361	      6.09682623	     -5.02265226	      1.59907169	     23.47647645	     67.41434202
